<svg xmlns="http://www.w3.org/2000/svg" viewBox="0 0 820 660" font-family="Arial, Helvetica, sans-serif" style="background:#fff">
<defs>
  <marker id="arr" markerWidth="9" markerHeight="7"
          refX="8" refY="3.5" orient="auto">
    <polygon points="0 0,9 3.5,0 7" fill="#2a2a2a"/>
  </marker>
  <marker id="arr-lt" markerWidth="9" markerHeight="7"
          refX="8" refY="3.5" orient="auto">
    <polygon points="0 0,9 3.5,0 7" fill="#888888"/>
  </marker>
  <marker id="arr-blue" markerWidth="9" markerHeight="7"
          refX="8" refY="3.5" orient="auto">
    <polygon points="0 0,9 3.5,0 7" fill="#1565c0"/>
  </marker>
</defs><text x="410" y="26" text-anchor="middle" font-size="15" font-weight="bold" fill="#111">Overall System Architecture</text>
<text x="410" y="42" text-anchor="middle" font-size="10" font-weight="normal" fill="#555555">KKBox Churn Prediction MLOps Pipeline</text>
<rect x="20" y="56" width="780" height="72" rx="8" fill="#f9f9f9" stroke="#aaaaaa" stroke-width="1" stroke-dasharray="6,3"/>
<text x="28" y="69" font-size="10" font-weight="bold" fill="#777777" text-transform="uppercase">① Data Sources</text>
<rect x="36" y="72" width="148" height="44" rx="5" fill="#fff8e1" stroke="#c8a200" stroke-width="1.5" opacity="1"/>
<text x="110" y="88" text-anchor="middle" font-size="11" font-weight="bold" fill="#111111">GCS Bronze</text>
<text x="110" y="103" text-anchor="middle" font-size="9" font-weight="normal" fill="#555555">user_logs_v2 · transactions_v2</text>
<rect x="224" y="72" width="168" height="44" rx="5" fill="#fff8e1" stroke="#c8a200" stroke-width="1.5" opacity="1"/>
<text x="308" y="88" text-anchor="middle" font-size="11" font-weight="bold" fill="#111111">BigQuery Gold</text>
<text x="308" y="103" text-anchor="middle" font-size="9" font-weight="normal" fill="#555555">features_train  (~1M rows)</text>
<text x="490" y="88" text-anchor="start" font-size="9" font-weight="normal" fill="#999">Source: WSDM KKBox Cup 2018</text>
<rect x="20" y="148" width="380" height="178" rx="8" fill="#f9f9f9" stroke="#aaaaaa" stroke-width="1" stroke-dasharray="6,3"/>
<text x="28" y="161" font-size="10" font-weight="bold" fill="#777777" text-transform="uppercase">② Data Pipeline</text>
<rect x="36" y="164" width="148" height="40" rx="5" fill="#f2f2f2" stroke="#2a2a2a" stroke-width="1.5" opacity="1"/>
<text x="110" y="180" text-anchor="middle" font-size="11" font-weight="bold" fill="#111111">kafka_producer.py</text>
<text x="110" y="193" text-anchor="middle" font-size="9" font-weight="normal" fill="#555555">GCS → Kafka (zero disk)</text>
<rect x="36" y="224" width="348" height="40" rx="5" fill="#e8f4f8" stroke="#1565c0" stroke-width="1.5" opacity="1"/>
<text x="210" y="240" text-anchor="middle" font-size="11" font-weight="bold" fill="#111111">Apache Kafka  (KRaft, no ZooKeeper)</text>
<text x="210" y="253" text-anchor="middle" font-size="9" font-weight="normal" fill="#555555">kkbox.user_logs  ·  kkbox.transactions  +  EOD markers</text>
<rect x="36" y="284" width="348" height="40" rx="5" fill="#f2f2f2" stroke="#2a2a2a" stroke-width="1.5" opacity="1"/>
<text x="210" y="300" text-anchor="middle" font-size="11" font-weight="bold" fill="#111111">kafka_consumer.py</text>
<text x="210" y="313" text-anchor="middle" font-size="9" font-weight="normal" fill="#555555">cumulative aggregation · dual EOD · background I/O thread</text>
<rect x="20" y="346" width="380" height="120" rx="8" fill="#f9f9f9" stroke="#aaaaaa" stroke-width="1" stroke-dasharray="6,3"/>
<text x="28" y="359" font-size="10" font-weight="bold" fill="#777777" text-transform="uppercase">③ Feature Store</text>
<rect x="36" y="362" width="148" height="40" rx="5" fill="#fff8e1" stroke="#c8a200" stroke-width="1.5" opacity="1"/>
<text x="110" y="378" text-anchor="middle" font-size="11" font-weight="bold" fill="#111111">BigQuery Gold</text>
<text x="110" y="391" text-anchor="middle" font-size="9" font-weight="normal" fill="#555555">features_streaming (append)</text>
<rect x="224" y="362" width="160" height="40" rx="5" fill="#e8f5e9" stroke="#388e3c" stroke-width="1.5" opacity="1"/>
<text x="304" y="378" text-anchor="middle" font-size="11" font-weight="bold" fill="#111111">Redis (Feast)</text>
<text x="304" y="391" text-anchor="middle" font-size="9" font-weight="normal" fill="#555555">Cloud Memorystore :6379</text>
<rect x="36" y="412" width="348" height="44" rx="5" fill="#e8f4f8" stroke="#1565c0" stroke-width="1.5" opacity="1"/>
<text x="210" y="428" text-anchor="middle" font-size="11" font-weight="bold" fill="#111111">Feast Feature Store</text>
<text x="210" y="443" text-anchor="middle" font-size="9" font-weight="normal" fill="#555555">offline: BigQuery  ·  online: Redis  ·  entity: msno</text>
<rect x="430" y="148" width="370" height="130" rx="8" fill="#f9f9f9" stroke="#aaaaaa" stroke-width="1" stroke-dasharray="6,3"/>
<text x="438" y="161" font-size="10" font-weight="bold" fill="#777777" text-transform="uppercase">④ Model Pipeline</text>
<rect x="446" y="164" width="160" height="40" rx="5" fill="#f2f2f2" stroke="#2a2a2a" stroke-width="1.5" opacity="1"/>
<text x="526" y="180" text-anchor="middle" font-size="11" font-weight="bold" fill="#111111">train.py</text>
<text x="526" y="193" text-anchor="middle" font-size="9" font-weight="normal" fill="#555555">XGBoost · out-of-time split</text>
<rect x="446" y="216" width="100" height="40" rx="5" fill="#e8f4f8" stroke="#6a1b9a" stroke-width="1.5" opacity="1"/>
<text x="496" y="232" text-anchor="middle" font-size="11" font-weight="bold" fill="#111111">MLflow</text>
<text x="496" y="245" text-anchor="middle" font-size="9" font-weight="normal" fill="#555555">experiment log</text>
<rect x="564" y="216" width="152" height="40" rx="5" fill="#fff8e1" stroke="#c8a200" stroke-width="1.5" opacity="1"/>
<text x="640" y="232" text-anchor="middle" font-size="11" font-weight="bold" fill="#111111">GCS Artifacts</text>
<text x="640" y="245" text-anchor="middle" font-size="9" font-weight="normal" fill="#555555">model.ubj · config.json</text>
<rect x="446" y="266" width="270" height="12" rx="5" fill="none" stroke="none" stroke-width="1.5" opacity="1"/>
<rect x="430" y="298" width="370" height="168" rx="8" fill="#f9f9f9" stroke="#aaaaaa" stroke-width="1" stroke-dasharray="6,3"/>
<text x="438" y="311" font-size="10" font-weight="bold" fill="#777777" text-transform="uppercase">⑤ Serving Pipeline</text>
<rect x="446" y="314" width="338" height="44" rx="5" fill="#e8f4f8" stroke="#0d47a1" stroke-width="2" opacity="1"/>
<text x="615" y="330" text-anchor="middle" font-size="12" font-weight="bold" fill="#111111">FastAPI  :8000</text>
<text x="615" y="347" text-anchor="middle" font-size="9" font-weight="normal" fill="#555555">PredictionService · StreamingController · SSE</text>
<rect x="446" y="368" width="150" height="36" rx="5" fill="#f2f2f2" stroke="#2a2a2a" stroke-width="1.5" opacity="1"/>
<text x="521" y="384" text-anchor="middle" font-size="11" font-weight="bold" fill="#111111">nginx  :80</text>
<text x="521" y="397" text-anchor="middle" font-size="9" font-weight="normal" fill="#555555">reverse proxy</text>
<rect x="610" y="368" width="174" height="36" rx="5" fill="#fce4ec" stroke="#880e4f" stroke-width="1.5" opacity="1"/>
<text x="697" y="384" text-anchor="middle" font-size="11" font-weight="bold" fill="#111111">React Dashboard  /ui/</text>
<text x="697" y="397" text-anchor="middle" font-size="9" font-weight="normal" fill="#555555">6 pages · CDN · SSE client</text>
<rect x="446" y="416" width="338" height="36" rx="5" fill="#f3f3f3" stroke="#888888" stroke-width="1.5" opacity="1"/>
<text x="615" y="432" text-anchor="middle" font-size="9" font-weight="normal" fill="#555555">GCE VM  e2-standard-2  ·  asia-southeast1-b</text>
<text x="615" y="445" text-anchor="middle" font-size="9" font-weight="normal" fill="#555555">Static IP: 35.198.232.66  ·  systemd kkbox-serving</text>
<rect x="430" y="486" width="370" height="104" rx="8" fill="#f9f9f9" stroke="#aaaaaa" stroke-width="1" stroke-dasharray="6,3"/>
<text x="438" y="499" font-size="10" font-weight="bold" fill="#777777" text-transform="uppercase">⑥ Monitoring Pipeline</text>
<rect x="446" y="502" width="160" height="36" rx="5" fill="#f2f2f2" stroke="#e65100" stroke-width="1.5" opacity="1"/>
<text x="526" y="518" text-anchor="middle" font-size="11" font-weight="bold" fill="#111111">Prometheus  :9090</text>
<text x="526" y="531" text-anchor="middle" font-size="9" font-weight="normal" fill="#555555">scrape /metrics every 15s</text>
<rect x="622" y="502" width="162" height="36" rx="5" fill="#f2f2f2" stroke="#e65100" stroke-width="1.5" opacity="1"/>
<text x="703" y="518" text-anchor="middle" font-size="11" font-weight="bold" fill="#111111">Grafana  :3000</text>
<text x="703" y="531" text-anchor="middle" font-size="9" font-weight="normal" fill="#555555">API Health · Churn dashboards</text>
<text x="615" y="564" text-anchor="middle" font-size="9" font-weight="normal" fill="#777777">Docker  (monitoring_pipeline/docker-compose.yml)</text>
<rect x="430" y="608" width="370" height="36" rx="5" fill="#e8f5e9" stroke="#2e7d32" stroke-width="2" opacity="1"/>
<text x="615" y="630" text-anchor="middle" font-size="12" font-weight="bold" fill="#1b5e20">Users  /  Customer Success Team</text>
<line x1="110" y1="116" x2="110" y2="164" stroke="#2a2a2a" stroke-width="1.5" marker-end="url(#arr)"/>
<line x1="308" y1="116" x2="308" y2="284" stroke="#888888" stroke-width="1.5" stroke-dasharray="6,3" marker-end="url(#arr-lt)"/>
<text x="340" y="210" text-anchor="middle" font-size="9" fill="#555555" style="font-style:italic">baseline features</text>
<line x1="110" y1="204" x2="110" y2="224" stroke="#2a2a2a" stroke-width="1.5" marker-end="url(#arr)"/>
<line x1="210" y1="264" x2="210" y2="284" stroke="#2a2a2a" stroke-width="1.5" marker-end="url(#arr)"/>
<line x1="110" y1="324" x2="110" y2="362" stroke="#2a2a2a" stroke-width="1.5" marker-end="url(#arr)"/>
<line x1="210" y1="324" x2="210" y2="412" stroke="#2a2a2a" stroke-width="1.5" marker-end="url(#arr)"/>
<line x1="110" y1="402" x2="110" y2="412" stroke="#2a2a2a" stroke-width="1.5" marker-end="url(#arr)"/>
<line x1="278" y1="432" x2="278" y2="362" stroke="#2a2a2a" stroke-width="1.5" marker-end="url(#arr)"/>
<line x1="308" y1="116" x2="526" y2="164" stroke="#888888" stroke-width="1.5" stroke-dasharray="6,3" marker-end="url(#arr-lt)"/>
<line x1="496" y1="204" x2="496" y2="216" stroke="#2a2a2a" stroke-width="1.5" marker-end="url(#arr)"/>
<line x1="606" y1="196" x2="640" y2="216" stroke="#2a2a2a" stroke-width="1.5" marker-end="url(#arr)"/>
<line x1="640" y1="256" x2="640" y2="314" stroke="#888888" stroke-width="1.5" stroke-dasharray="6,3" marker-end="url(#arr-lt)"/>
<path d="M 400 378 L 446 338" fill="none" stroke="#888888" stroke-width="1.5" marker-end="url(#arr-lt)"/>
<text x="425" y="355" text-anchor="middle" font-size="9" fill="#555555" style="font-style:italic">online features</text>
<line x1="526" y1="358" x2="521" y2="368" stroke="#2a2a2a" stroke-width="1.5" marker-end="url(#arr)"/>
<line x1="697" y1="358" x2="697" y2="368" stroke="#1565c0" stroke-width="1.5" stroke-dasharray="6,3" marker-end="url(#arr-blue)"/>
<text x="720" y="363" text-anchor="middle" font-size="9" fill="#555555" style="font-style:italic">SSE</text>
<path d="M 521 404 L 521 608" fill="none" stroke="#2a2a2a" stroke-width="1.5" marker-end="url(#arr)"/>
<text x="530" y="520" text-anchor="middle" font-size="9" fill="#555555" style="font-style:italic">HTTP :80</text>
<path d="M 615 358 L 526 502" fill="none" stroke="#888888" stroke-width="1.5" stroke-dasharray="6,3" marker-end="url(#arr-lt)"/>
<text x="548" y="440" text-anchor="middle" font-size="9" fill="#555555" style="font-style:italic">/metrics</text>
<line x1="606" y1="520" x2="622" y2="520" stroke="#2a2a2a" stroke-width="1.5" marker-end="url(#arr)"/>
</svg>
